<svg xmlns="http://www.w3.org/2000/svg" xmlns:xlink="http://www.w3.org/1999/xlink" width="500" zoomAndPan="magnify" viewBox="0 0 375 374.999991" height="500" preserveAspectRatio="xMidYMid meet" version="1.0"><defs><g/><clipPath id="e45e398526"><path d="M 95.28125 155.582031 L 159.03125 155.582031 L 159.03125 219.332031 L 95.28125 219.332031 Z M 95.28125 155.582031 " clip-rule="nonzero"/></clipPath></defs><rect x="-37.5" width="450" fill="#ffffff" y="-37.499999" height="449.999989" fill-opacity="1"/><rect x="-37.5" width="450" fill="#ffffff" y="-37.499999" height="449.999989" fill-opacity="1"/><g clip-path="url(#e45e398526)"><path fill="#e84d35" d="M 125.523438 173.253906 C 124.894531 167.871094 124.234375 162.183594 124.234375 155.582031 L 130.160156 155.582031 C 130.160156 162.109375 129.5 167.789062 128.871094 173.179688 C 128.363281 177.570312 127.871094 181.773438 127.78125 186.085938 C 130.757812 182.984375 133.359375 179.691406 136.089844 176.242188 C 139.449219 171.992188 143 167.503906 147.667969 162.835938 L 151.859375 167.027344 C 147.246094 171.640625 142.761719 175.191406 138.507812 178.558594 L 138.503906 178.5625 C 135.039062 181.304688 131.722656 183.929688 128.609375 186.914062 C 132.90625 186.824219 137.078125 186.335938 141.441406 185.828125 C 146.828125 185.199219 152.511719 184.535156 159.113281 184.535156 L 159.113281 190.464844 C 152.585938 190.464844 146.910156 189.800781 141.519531 189.175781 L 141.515625 189.175781 C 137.125 188.664062 132.921875 188.175781 128.609375 188.085938 C 131.710938 191.058594 135 193.660156 138.445312 196.386719 L 138.453125 196.390625 C 142.703125 199.753906 147.191406 203.304688 151.859375 207.972656 L 147.667969 212.164062 C 143.054688 207.546875 139.507812 203.066406 136.140625 198.8125 L 136.132812 198.800781 L 136.125 198.792969 C 133.382812 195.332031 130.761719 192.023438 127.78125 188.910156 C 127.871094 193.226562 128.363281 197.429688 128.871094 201.820312 C 129.5 207.210938 130.160156 212.890625 130.160156 219.414062 L 124.234375 219.414062 C 124.234375 212.816406 124.894531 207.128906 125.523438 201.746094 L 125.527344 201.738281 C 126.035156 197.375 126.519531 193.207031 126.613281 188.910156 C 123.628906 192.023438 121.007812 195.332031 118.269531 198.792969 L 118.261719 198.800781 L 118.253906 198.8125 C 114.886719 203.066406 111.339844 207.546875 106.722656 212.164062 L 102.53125 207.972656 C 107.199219 203.304688 111.691406 199.753906 115.941406 196.390625 L 115.945312 196.386719 C 119.390625 193.660156 122.683594 191.058594 125.785156 188.085938 C 121.46875 188.175781 117.265625 188.664062 112.875 189.175781 C 107.484375 189.800781 101.808594 190.464844 95.28125 190.464844 L 95.28125 184.535156 C 101.882812 184.535156 107.566406 185.199219 112.949219 185.828125 C 117.316406 186.335938 121.484375 186.824219 125.785156 186.914062 C 122.667969 183.925781 119.351562 181.300781 115.886719 178.558594 C 111.628906 175.191406 107.148438 171.640625 102.53125 167.027344 L 106.722656 162.835938 C 111.390625 167.503906 114.941406 171.992188 118.304688 176.242188 C 121.03125 179.691406 123.636719 182.984375 126.613281 186.085938 C 126.519531 181.789062 126.035156 177.625 125.527344 173.261719 Z M 125.523438 173.253906 " fill-opacity="1" fill-rule="nonzero"/></g><g fill="#171614" fill-opacity="1"><g transform="translate(182.518761, 200.999987)"><g><path d="M 41.125 -28.078125 L 33.796875 0 L 25.515625 0 L 21.046875 -18.484375 L 16.40625 0 L 8.125 0 L 1 -28.078125 L 8.3125 -28.078125 L 12.359375 -7.640625 L 17.359375 -28.078125 L 24.875 -28.078125 L 29.6875 -7.640625 L 33.765625 -28.078125 Z M 41.125 -28.078125 "/></g></g></g><g fill="#171614" fill-opacity="1"><g transform="translate(222.674578, 200.999987)"><g><path d="M 23.875 -19.046875 C 23.875 -17.410156 23.5 -15.921875 22.75 -14.578125 C 22.007812 -13.234375 20.863281 -12.144531 19.3125 -11.3125 C 17.769531 -10.488281 15.851562 -10.078125 13.5625 -10.078125 L 9.3125 -10.078125 L 9.3125 0 L 2.484375 0 L 2.484375 -28.078125 L 13.5625 -28.078125 C 15.800781 -28.078125 17.691406 -27.691406 19.234375 -26.921875 C 20.785156 -26.148438 21.945312 -25.082031 22.71875 -23.71875 C 23.488281 -22.363281 23.875 -20.804688 23.875 -19.046875 Z M 13.046875 -15.515625 C 14.347656 -15.515625 15.316406 -15.820312 15.953125 -16.4375 C 16.597656 -17.050781 16.921875 -17.921875 16.921875 -19.046875 C 16.921875 -20.160156 16.597656 -21.023438 15.953125 -21.640625 C 15.316406 -22.253906 14.347656 -22.5625 13.046875 -22.5625 L 9.3125 -22.5625 L 9.3125 -15.515625 Z M 13.046875 -15.515625 "/></g></g></g><g fill="#171614" fill-opacity="1"><g transform="translate(245.712105, 200.999987)"><g><path d="M 16.796875 0 L 10.953125 -10.59375 L 9.3125 -10.59375 L 9.3125 0 L 2.484375 0 L 2.484375 -28.078125 L 13.953125 -28.078125 C 16.171875 -28.078125 18.054688 -27.691406 19.609375 -26.921875 C 21.171875 -26.148438 22.335938 -25.085938 23.109375 -23.734375 C 23.890625 -22.390625 24.28125 -20.890625 24.28125 -19.234375 C 24.28125 -17.367188 23.753906 -15.703125 22.703125 -14.234375 C 21.648438 -12.773438 20.097656 -11.738281 18.046875 -11.125 L 24.515625 0 Z M 9.3125 -15.4375 L 13.5625 -15.4375 C 14.8125 -15.4375 15.75 -15.742188 16.375 -16.359375 C 17 -16.972656 17.3125 -17.835938 17.3125 -18.953125 C 17.3125 -20.023438 17 -20.867188 16.375 -21.484375 C 15.75 -22.097656 14.8125 -22.40625 13.5625 -22.40625 L 9.3125 -22.40625 Z M 9.3125 -15.4375 "/></g></g></g><g fill="#171614" fill-opacity="1"><g transform="translate(269.869517, 200.999987)"><g><path d="M 19.953125 -4.953125 L 9.484375 -4.953125 L 7.796875 0 L 0.640625 0 L 10.796875 -28.078125 L 18.71875 -28.078125 L 28.875 0 L 21.640625 0 Z M 18.203125 -10.234375 L 14.71875 -20.515625 L 11.28125 -10.234375 Z M 18.203125 -10.234375 "/></g></g></g><g fill="#171614" fill-opacity="1"><g transform="translate(297.426591, 200.999987)"><g><path d="M 5.6875 0.3125 C 4.476562 0.3125 3.492188 -0.0351562 2.734375 -0.734375 C 1.972656 -1.441406 1.59375 -2.316406 1.59375 -3.359375 C 1.59375 -4.421875 1.972656 -5.3125 2.734375 -6.03125 C 3.492188 -6.757812 4.476562 -7.125 5.6875 -7.125 C 6.851562 -7.125 7.816406 -6.757812 8.578125 -6.03125 C 9.335938 -5.3125 9.71875 -4.421875 9.71875 -3.359375 C 9.71875 -2.316406 9.335938 -1.441406 8.578125 -0.734375 C 7.816406 -0.0351562 6.851562 0.3125 5.6875 0.3125 Z M 5.6875 0.3125 "/></g></g></g></svg>